<?xml version="1.0" encoding="UTF-8"?>
<!DOCTYPE svg PUBLIC "-//W3C//DTD SVG 1.1//EN" "http://www.w3.org/Graphics/SVG/1.1/DTD/svg11.dtd">
<!-- Creator: CorelDRAW X8 -->
<svg xmlns="http://www.w3.org/2000/svg" xml:space="preserve" width="0.761016in" height="0.761016in" version="1.1" style="shape-rendering:geometricPrecision; text-rendering:geometricPrecision; image-rendering:optimizeQuality; fill-rule:evenodd; clip-rule:evenodd" viewBox="0 0 761 761">
 <defs>
  <style type="text/css">
   <![CDATA[
    .fil0 {fill:#D47439}
    .fil1 {fill:#F6934C}
   ]]>
  </style>
 </defs>
 <g id="Layer_x0020_1">
  <metadata id="CorelCorpID_0Corel-Layer"/>
  <g id="_2373881200624">
   <circle class="fil0" transform="matrix(0.189513 0.0403856 -0.0403644 0.189415 373.215 323.344)" r="1643"/>
   <path class="fil1" d="M428 621c17,70 35,131 109,79 14,-9 26,-20 40,-29 23,-13 51,-19 78,-19 6,0 39,2 44,8 -5,1 -10,3 -14,4 3,4 6,6 8,8 1,1 1,0 1,2 -5,0 -12,-1 -19,-1 5,7 13,5 18,14 -5,0 -8,0 -14,0 4,5 8,6 11,10 -10,0 -19,-2 -27,-3 -21,-3 -38,0 -57,9 -25,11 -41,30 -64,43 -52,31 -103,13 -133,-45 -81,-163 -17,-452 106,-588 15,-17 56,-66 75,-42 15,18 -1,31 -21,49 -39,35 -77,101 -97,147 -47,110 -68,253 -44,354z"/>
   <path class="fil1" d="M263 642c-18,-2 -21,-15 -25,-35 -44,-187 27,-435 157,-575 18,-20 35,-31 49,-29 13,2 24,20 15,35 -13,15 -29,26 -40,40 -70,87 -108,165 -129,255 -19,82 -21,179 -3,279 3,17 -6,31 -24,30z"/>
   <path class="fil1" d="M337 664c-18,-3 -21,-16 -25,-35 -4,-20 -7,-38 -9,-58 -18,-175 42,-356 149,-495 11,-14 45,-54 66,-51 13,2 24,17 17,33 -2,5 -31,30 -43,44 -103,113 -161,319 -142,476 4,26 29,91 -13,86z"/>
   <path class="fil1" d="M181 284c19,-75 64,-176 117,-235l37 -37c9,-8 21,-18 35,-8 12,9 11,26 3,34l-26 23c-95,95 -150,275 -146,408 0,20 7,82 12,94 0,1 1,1 0,2 9,38 -20,40 -33,29 -42,-102 -21,-207 1,-310z"/>
   <path class="fil1" d="M617 304c-47,-6 -110,-5 -139,-6l16 -39c40,-3 210,-17 220,42 -1,22 -17,23 -33,20 -23,-5 -37,-14 -64,-17zm-103 -85c5,-15 20,-30 27,-45 31,-3 93,9 123,19 17,6 23,6 30,22 3,14 -3,21 -10,28 -4,1 -14,-4 -24,-6 -49,-8 -96,-21 -146,-18z"/>
   <path class="fil1" d="M666 426c12,3 18,3 23,11 6,9 5,20 0,26 -12,17 -40,4 -54,-1 -28,-9 -171,-85 -180,-105 -2,-4 3,-7 8,-22 3,-9 4,-14 8,-22l2 1c14,8 100,83 193,112z"/>
   <path class="fil1" d="M438 445c1,-13 4,-40 10,-50 75,57 104,63 180,105 9,5 19,8 26,14 -1,49 -77,9 -110,-4 -9,-4 -18,-9 -27,-14 -20,-11 -66,-38 -79,-51z"/>
   <path class="fil1" d="M433 537c-1,-13 -2,-41 2,-53 9,4 10,7 19,12 6,3 13,7 19,11 14,8 27,13 42,20 49,23 78,17 80,43 5,64 -142,-23 -162,-33z"/>
   <path class="fil1" d="M112 321c-5,-16 -58,-115 -32,-137 14,-12 31,-3 35,11 8,26 17,75 35,104 7,12 9,13 8,18 -1,8 -6,18 -8,31 -2,11 -2,25 -4,30 -7,-6 -29,-46 -34,-57z"/>
   <path class="fil1" d="M534 334c19,-14 118,10 145,16 48,14 31,40 24,45 -14,8 -23,2 -34,-2l-67 -14c-17,-2 -64,-22 -68,-45z"/>
   <path class="fil1" d="M170 262c-11,-23 -84,-166 -21,-161 24,2 20,37 36,81 6,18 7,20 4,28 -3,6 -7,16 -10,25 -3,12 -6,22 -9,27z"/>
   <path class="fil1" d="M209 161c-10,-8 -33,-85 -26,-101 7,-16 38,-28 46,12 9,46 14,24 -7,63 -5,10 -7,17 -13,26z"/>
   <path class="fil1" d="M114 391c5,-6 8,-7 16,-8 10,19 18,7 12,40 -2,11 4,3 -12,16 -6,6 -10,9 -16,15 -11,11 -24,22 -40,8 -25,-22 22,-52 40,-71z"/>
   <path class="fil1" d="M446 628l-11 -50c7,0 31,10 41,14 14,4 33,5 38,20 6,17 -7,32 -25,30 -9,-2 -35,-11 -43,-14z"/>
   <path class="fil1" d="M55 349c3,-5 15,-15 20,-19 7,-4 9,-9 17,-13l8 16c4,5 11,16 14,25 -6,7 -14,13 -20,19 -6,6 -12,12 -25,12 -10,-3 -15,-2 -20,-15 -4,-12 3,-19 6,-25z"/>
   <path class="fil1" d="M569 142c6,-7 31,-32 39,-36 10,6 25,6 35,14 11,7 13,25 4,34 -12,11 -28,3 -39,-1 -8,-2 -34,-8 -39,-11z"/>
   <path class="fil1" d="M141 471c1,16 2,31 4,47 3,38 -88,9 -4,-47z"/>
   <path class="fil1" d="M259 73c-3,-13 -10,-35 -8,-47 2,-13 19,-23 33,-14 24,15 -2,30 -14,47 -4,6 -4,10 -11,14z"/>
   <path class="fil1" d="M66 247l15 46c-33,14 -49,-27 -15,-46z"/>
  </g>
 </g>
</svg>